# xmcd CD database file
#
# Track frame offsets:
#	150
#	15049
#	30774
#	47404
#	60165
#	73209
#	92146
#	127374
#	143893
#	172678
#
# Disc length: 3539 seconds
#
# Revision: 5
# Processed by: cddbd v1.5.1PL0 Copyright (c) Steve Scherf et al.
# Submitted via: CDex 1.50beta10
#
DISCID=730dd10a
DTITLE=Jaro Filip - Ten čo hrával s Dežom
DYEAR=1998
DGENRE=Rock
TTITLE0=Ja som ten čo hrával s Dežom
TTITLE1=Informácia o ovzduší
TTITLE2=Diabol v slabom tele
TTITLE3=Syn nosí moju tvár
TTITLE4=Lady Di
TTITLE5=Rocker
TTITLE6=Vízum do pekla
TTITLE7=Boh aj v pekle prsty má
TTITLE8=Absolútne
TTITLE9=Data track
EXTD=Obsahuje dátovú stopu
EXTT0=
EXTT1=
EXTT2=
EXTT3=
EXTT4=
EXTT5=
EXTT6=
EXTT7=
EXTT8=
EXTT9=
PLAYORDER=
